<svg width="891" height="86" viewBox="0 0 891 86" fill="none" xmlns="http://www.w3.org/2000/svg">
<path d="M565.589 54.6261L569.82 58.671C568.429 60.5256 566.747 62.144 564.838 63.4638C562.976 64.8638 560.933 66.0072 558.764 66.8629C556.065 67.8914 553.192 68.3878 550.302 68.3245C546.798 68.3677 543.319 67.7208 540.066 66.421C537.053 65.2474 534.311 63.4762 532.006 61.2149C529.701 58.9536 527.881 56.2495 526.657 53.2664C524.11 46.9632 524.11 39.9228 526.657 33.6195C527.881 30.661 529.691 27.9789 531.98 25.7335C534.284 23.4508 537.021 21.6481 540.032 20.4309C543.285 19.1311 546.764 18.4842 550.268 18.5274C552.801 18.4934 555.32 18.9077 557.707 19.7511C559.707 20.4423 561.629 21.3424 563.439 22.4364C565.265 23.475 566.941 24.7557 568.421 26.2434V31.0022H562.074V28.3848C561.102 27.5234 560.038 26.7711 558.901 26.1414C557.703 25.5269 556.46 25.0042 555.182 24.5778C553.551 24.0551 551.845 23.8024 550.132 23.83C547.739 23.8335 545.371 24.3203 543.172 25.2609C540.972 26.2015 538.987 27.5764 537.336 29.3026C535.661 31.09 534.341 33.1777 533.447 35.455C532.447 37.9398 531.949 40.5963 531.98 43.273C531.949 45.9497 532.447 48.6062 533.447 51.091C534.333 53.3725 535.654 55.4617 537.336 57.2434C538.987 58.9696 540.972 60.3445 543.172 61.2851C545.371 62.2257 547.739 62.7125 550.132 62.716C552.472 62.8002 554.801 62.3708 556.956 61.4583C558.662 60.7033 560.276 59.7568 561.767 58.637C563.256 57.5215 564.548 56.1659 565.589 54.6261ZM93.662 32.2598C94.9262 35.0464 95.5666 38.0737 95.5386 41.1315C95.5504 41.9424 95.4703 42.752 95.2998 43.5449C95.2998 44.2587 94.9927 44.9386 94.8221 45.5504C94.5599 46.2032 94.3433 46.8733 94.1738 47.5559H58.8245C58.8781 48.7656 59.255 49.9391 59.9164 50.955C60.7298 52.25 61.7564 53.3991 62.9531 54.3541C64.2995 55.4409 65.7927 56.3335 67.3888 57.0055C69.0362 57.7157 70.8144 58.0746 72.6094 58.0592C74.7047 58.0952 76.7916 57.7851 78.7852 57.1414C80.3752 56.6048 81.9162 55.9339 83.3916 55.1359C84.8258 54.3014 86.1448 53.2845 87.3155 52.1107L92.3995 60.3706C90.9158 61.9253 89.2011 63.2437 87.3155 64.2796C85.3728 65.3954 83.3132 66.2959 81.1737 66.9649C78.3972 67.7974 75.5085 68.1987 72.6094 68.1546C69.1023 68.1887 65.6232 67.5302 62.3731 66.2171C59.3197 65.0036 56.5368 63.2016 54.184 60.9145C51.8623 58.6301 50.0285 55.9014 48.7929 52.8925C46.1998 46.5159 46.1998 39.3842 48.7929 33.0076C50.0095 30.0215 51.7937 27.2976 54.0476 24.9857C56.2374 22.7081 58.8737 20.9032 61.793 19.6831C64.7754 18.3941 67.9935 17.7344 71.2445 17.7456C74.4848 17.7312 77.6924 18.3911 80.6619 19.6831C83.5542 20.9099 86.1923 22.6619 88.4415 24.8497C90.6536 26.954 92.4276 29.472 93.662 32.2598ZM83.1868 37.4265C83.1652 36.2352 82.8487 35.0676 82.2656 34.0274C81.626 32.8672 80.7823 31.831 79.7747 30.9682C78.6677 30.0037 77.3966 29.244 76.0214 28.7247C72.9408 27.5781 69.5482 27.5781 66.4676 28.7247C65.0819 29.2437 63.7996 30.0032 62.6802 30.9682C61.6726 31.831 60.8289 32.8672 60.1893 34.0274C59.6062 35.0676 59.2897 36.2352 59.2681 37.4265H83.1868ZM223.083 32.1919C224.36 34.9755 225.012 38.0031 224.993 41.0636C224.999 41.8726 224.93 42.6803 224.789 43.4769C224.789 44.1908 224.448 44.8706 224.277 45.4824C224.106 46.0943 223.799 46.8081 223.629 47.4879H188.211C188.265 48.7027 188.654 49.8791 189.337 50.887C190.136 52.1824 191.152 53.3321 192.34 54.2862C193.686 55.373 195.179 56.2655 196.775 56.9375C198.435 57.6476 200.224 58.0064 202.03 57.9912C204.114 58.0272 206.19 57.7171 208.172 57.0734C209.762 56.5368 211.303 55.8659 212.778 55.068C214.223 54.234 215.553 53.2171 216.736 52.0427L221.786 60.4046C220.315 61.959 218.612 63.2775 216.736 64.3136C214.778 65.422 212.708 66.3221 210.56 66.9989C207.796 67.8317 204.918 68.233 202.03 68.1886C198.523 68.2183 195.045 67.5599 191.794 66.2511C188.74 65.0376 185.958 63.2356 183.605 60.9484C181.294 58.6547 179.462 55.9284 178.214 52.9265C175.666 46.5411 175.666 39.427 178.214 33.0416C179.43 30.0555 181.214 27.3316 183.468 25.0197C185.627 22.7671 188.213 20.9646 191.077 19.7171C194.053 18.4453 197.257 17.7895 200.495 17.7895C203.732 17.7895 206.936 18.4453 209.912 19.7171C212.859 20.9018 215.547 22.6449 217.828 24.8497C220.04 26.9612 221.824 29.4769 223.083 32.2598V32.1919ZM212.608 37.4265C212.544 36.2234 212.181 35.0551 211.55 34.0274C210.899 32.8747 210.057 31.8403 209.059 30.9682C206.672 28.9644 203.65 27.8655 200.529 27.8655C197.407 27.8655 194.386 28.9644 191.999 30.9682C191.011 31.8412 190.18 32.8758 189.542 34.0274C188.959 35.0676 188.642 36.2352 188.621 37.4265H212.608ZM269.555 54.6941C268.125 55.6649 266.577 56.4528 264.949 57.0395C262.918 57.7799 260.765 58.1372 258.603 58.0932C256.609 58.118 254.633 57.7243 252.802 56.9375C251.057 56.2057 249.479 55.1305 248.162 53.7763C246.817 52.4066 245.751 50.7906 245.022 49.0175C243.532 45.1205 243.532 40.8137 245.022 36.9166C245.768 35.1523 246.832 33.5393 248.162 32.1579C249.497 30.825 251.071 29.7528 252.802 28.9967C254.64 28.2375 256.613 27.8559 258.603 27.875C259.901 27.857 261.197 28.0055 262.458 28.3168C263.618 28.6228 264.642 28.9287 265.495 29.2346C266.449 29.6194 267.372 30.0738 268.259 30.5943V33.9934H278.495V26.0394C276.744 24.4959 274.86 23.1083 272.865 21.8925C270.873 20.7679 268.783 19.8237 266.621 19.0712C264.076 18.1914 261.398 17.7545 258.705 17.7796C255.12 17.7399 251.562 18.398 248.23 19.7171C245.133 20.9044 242.311 22.7088 239.938 25.0197C237.585 27.2922 235.727 30.0229 234.479 33.0416C233.144 36.1801 232.47 39.5585 232.5 42.9671C232.467 46.387 233.14 49.7772 234.479 52.9265C235.74 55.9385 237.596 58.6667 239.938 60.9484C242.329 63.2371 245.146 65.0384 248.23 66.2511C251.562 67.5701 255.12 68.2283 258.705 68.1886C261.816 68.2403 264.911 67.7456 267.849 66.727C270.17 65.8525 272.38 64.7118 274.435 63.3278C276.428 61.9898 278.23 60.389 279.792 58.5691L273.343 51.227C272.259 52.5621 270.982 53.7305 269.555 54.6941ZM450.396 25.5296C452.769 27.7883 454.643 30.5143 455.9 33.5339C457.157 36.5535 457.769 39.8008 457.698 43.069C457.769 46.3978 457.158 49.706 455.902 52.7917C454.647 55.8774 452.773 58.6759 450.396 61.0164C445.618 65.6186 439.232 68.1912 432.585 68.1912C425.939 68.1912 419.552 65.6186 414.774 61.0164C412.397 58.6759 410.524 55.8774 409.268 52.7917C408.013 49.706 407.402 46.3978 407.472 43.069C407.401 39.8008 408.013 36.5535 409.271 33.5339C410.528 30.5143 412.402 27.7883 414.774 25.5296C419.573 20.9665 425.951 18.4205 432.585 18.4205C439.219 18.4205 445.598 20.9665 450.396 25.5296ZM451.147 43.069C451.221 40.5874 450.781 38.1171 449.853 35.8128C448.926 33.5084 447.531 31.4194 445.756 29.6765C444.033 27.9417 441.982 26.5645 439.721 25.6246C437.46 24.6847 435.035 24.2007 432.585 24.2007C430.136 24.2007 427.71 24.6847 425.449 25.6246C423.189 26.5645 421.137 27.9417 419.415 29.6765C417.645 31.4231 416.253 33.5127 415.326 35.8162C414.398 38.1197 413.955 40.5882 414.023 43.069C413.956 45.6058 414.397 48.1305 415.323 50.4947C416.249 52.8588 417.64 55.0147 419.415 56.8355C421.121 58.5996 423.166 60.0029 425.429 60.9614C427.692 61.9199 430.126 62.4139 432.585 62.4139C435.044 62.4139 437.478 61.9199 439.741 60.9614C442.004 60.0029 444.05 58.5996 445.756 56.8355C447.518 55.0108 448.895 52.852 449.803 50.4871C450.712 48.1222 451.134 45.5996 451.045 43.069H451.147ZM511.473 59.3848V19.5811H504.99V39.9758H477.215V25.3256C477.215 21.2807 475.509 19.5811 471.449 19.5811H464.625V25.1557H468.583C470.016 25.1557 470.664 25.8015 470.664 27.2291V67.0329H477.113V45.5164H504.99V61.2204C504.99 65.2653 506.696 66.9649 510.756 66.9649H517.581V61.4923H513.622C512.019 61.4923 511.37 60.8125 511.37 59.3848H511.473ZM617.248 61.4923H621.24V67.0329H614.689C610.628 67.0329 609.025 65.2653 609.025 61.4923V57.8892H608.82C607.474 60.9616 605.247 63.5689 602.418 65.3834C599.589 67.1978 596.284 68.1383 592.92 68.0866C588.895 68.2056 584.945 66.9857 581.694 64.6195C580.147 63.4171 578.91 61.8651 578.085 60.0918C577.261 58.3185 576.872 56.3749 576.951 54.4221C576.951 43.375 586.744 37.9024 606.158 37.9024H608.786V37.2226C608.786 27.5011 605.374 23.932 596.57 23.932C594.488 23.9276 592.418 24.237 590.429 24.8497C588.347 25.5296 587.29 26.5493 587.29 28.2489V31.2741H581.045V26.4473C581.26 24.845 581.98 23.3522 583.103 22.1849C584.225 21.0177 585.692 20.2367 587.29 19.955C590.252 18.9789 593.348 18.463 596.468 18.4254C603.599 18.4254 608.41 20.057 611.174 23.2522C614.111 27.079 615.554 31.8379 615.235 36.6447V59.3848C615.189 59.669 615.211 59.9598 615.299 60.2339C615.387 60.508 615.538 60.7577 615.74 60.9628C615.943 61.1679 616.191 61.3227 616.465 61.4146C616.739 61.5066 617.03 61.5332 617.316 61.4923H617.248ZM608.717 42.8991H605.988C601.307 42.7691 596.628 43.2375 592.067 44.2927C589.722 44.55 587.553 45.653 585.969 47.3939C584.385 49.1347 583.495 51.3929 583.468 53.7423C583.468 58.5351 587.46 62.784 594.182 62.784C596.256 62.8327 598.308 62.3562 600.146 61.399C601.984 60.4418 603.548 59.0353 604.691 57.3114C607.385 53.7891 608.815 49.4683 608.752 45.0405L608.717 42.8991ZM668.77 59.3848V25.3936C668.77 21.3486 667.064 19.6491 663.004 19.6491H635.059V25.1557H641.132V28.8267C641.064 35.6227 640.263 42.3918 638.744 49.0175C637.14 56.2916 633.455 61.5603 628.508 61.5603V67.4068C637.14 67.4068 641.576 60.0647 644.34 51.9408C645.871 46.4986 646.764 40.898 647.001 35.2511C647.001 33.0756 647.274 30.9002 647.274 28.9287V25.1557H660.138C661.571 25.1557 662.253 25.8015 662.253 27.2291V61.2204C662.253 65.2653 663.959 66.9649 668.02 66.9649H674.844V61.4923H670.852C670.566 61.5332 670.274 61.5066 670.001 61.4146C669.727 61.3227 669.479 61.1679 669.276 60.9628C669.074 60.7577 668.922 60.508 668.834 60.2339C668.747 59.9598 668.725 59.669 668.77 59.3848ZM781.369 59.3848V19.5811H775.125L751.718 50.8191C749.808 53.1549 748.096 55.6448 746.6 58.2631H746.43V57.0395C746.43 55.2379 746.703 52.6206 746.703 50.8191V25.1557C746.703 21.2807 745.099 19.5811 741.004 19.5811H734.59V25.1557H738.548C739.878 25.1557 740.527 25.8015 740.527 27.2291V67.0329H746.703L770.212 35.7269C772.109 33.4132 773.81 30.946 775.296 28.3508H775.501C775.112 30.7894 774.952 33.2588 775.023 35.7269V61.3903C775.023 65.4353 776.729 67.0329 780.789 67.0329H787.17V61.4923H783.28C782.12 61.4923 781.369 60.8125 781.369 59.3848ZM841.286 59.3848V19.5811H834.837V39.9758H807.062V25.3256C807.062 21.2807 805.356 19.5811 801.296 19.5811H794.472V25.1557H798.43C799.863 25.1557 800.511 25.8015 800.511 27.2291V67.0329H806.96V45.5164H834.735V61.2204C834.735 65.2653 836.441 66.9649 840.501 66.9649H847.325V61.4923H843.367C842.002 61.4923 841.354 60.8125 841.354 59.3848H841.286ZM885.199 19.5811H854.695V25.1557H860.769V67.0329H867.218V25.1557H883.425C883.709 25.1085 884 25.1295 884.275 25.217C884.549 25.3045 884.798 25.4559 885.001 25.6588C885.205 25.8616 885.357 26.1099 885.445 26.383C885.533 26.6561 885.554 26.9462 885.507 27.2291V31.0022H891V25.0537C891 20.9747 889.396 19.5811 885.199 19.5811ZM39.9897 0.0361267H0V10.5054H4.46984C4.6923 10.5054 4.91254 10.5496 5.11764 10.6354C5.32275 10.7212 5.50859 10.8469 5.6643 11.0052C5.82001 11.1635 5.94244 11.3511 6.02443 11.5572C6.10642 11.7632 6.14631 11.9834 6.14177 12.205V51.6688V55.068C6.13284 55.5038 5.95275 55.9187 5.64017 56.2238C5.32759 56.5288 4.90742 56.6996 4.46984 56.6995H0V67.1688H24.7036V56.5636H20.2678C19.8269 56.5639 19.403 56.3942 19.085 56.0901C18.7669 55.7859 18.5794 55.3709 18.5618 54.932V10.5054H33.0632C33.6152 10.5054 34.1446 10.7239 34.5349 11.1127C34.9253 11.5016 35.1446 12.029 35.1446 12.5789V16.6578H46.4045V6.46047C46.4045 2.00762 44.5278 0.0361267 39.9897 0.0361267ZM168.967 42.9671C169.086 46.2356 168.475 49.4897 167.177 52.4938C165.878 55.4979 163.926 58.1768 161.46 60.3366C156.015 64.9171 149.067 67.3375 141.943 67.1349V73.9331C141.969 74.3569 142.157 74.7548 142.468 75.0455C142.778 75.3361 143.189 75.4975 143.615 75.4967H148.085V86H123.757V75.4287H128.226C128.673 75.4288 129.102 75.2544 129.421 74.943C129.74 74.6316 129.924 74.208 129.933 73.7632V70.364V66.9649C122.809 67.1675 115.86 64.7472 110.415 60.1666C107.942 58.013 105.984 55.3352 104.686 52.3296C103.387 49.324 102.779 46.0669 102.909 42.7971C102.775 39.5417 103.381 36.2983 104.681 33.3085C105.98 30.3187 107.941 27.6597 110.415 25.5296C115.855 20.9406 122.807 18.519 129.933 18.7313V12.307C129.98 12.0241 129.959 11.734 129.871 11.4608C129.783 11.1877 129.631 10.9394 129.428 10.7366C129.224 10.5338 128.975 10.3823 128.701 10.2948C128.426 10.2073 128.135 10.1863 127.851 10.2335H124.03V0.0361267H135.494C140.066 0.0361267 141.943 2.00762 141.943 6.46047V18.9013C149.068 18.689 156.02 21.1105 161.46 25.6995C163.929 27.8344 165.885 30.4943 167.185 33.4829C168.484 36.4715 169.093 39.7127 168.967 42.9671ZM129.933 57.5153V28.5548C127.969 28.3739 125.989 28.6192 124.129 29.2737C122.27 29.9282 120.575 30.9764 119.161 32.3462C117.747 33.7159 116.648 35.3747 115.939 37.2082C115.23 39.0417 114.929 41.0064 115.056 42.9671C114.949 44.929 115.263 46.8911 115.976 48.7228C116.69 50.5545 117.787 52.2137 119.194 53.5901C120.602 54.9665 122.287 56.0284 124.139 56.7053C125.99 57.3821 127.965 57.6582 129.933 57.5153ZM156.956 42.9671C157.029 41.0082 156.686 39.0562 155.95 37.2384C155.213 35.4206 154.1 33.778 152.684 32.4178C151.267 31.0577 149.578 30.0106 147.727 29.3449C145.876 28.6793 143.905 28.41 141.943 28.5548V57.5153C143.915 57.6508 145.893 57.3706 147.749 56.693C149.604 56.0153 151.296 54.9555 152.712 53.5827C154.129 52.2098 155.239 50.5548 155.971 48.7257C156.702 46.8965 157.038 44.9343 156.956 42.9671ZM393.483 59.0109L381.916 36.1688C381.37 35.0471 380.517 33.2796 379.8 31.8519C380.38 30.6962 380.96 29.4726 381.37 28.6228L391.606 8.05806C392.459 6.15455 393.687 5.88262 396.417 5.88262H398.328V0.0361267H394.916C392.898 -0.108323 390.874 0.181501 388.979 0.885908C387.447 1.89273 386.257 3.33863 385.567 5.03284L374.614 27.0252C373.863 28.6228 371.85 29.4726 368.54 29.4726H361.716V7.95609C361.676 7.67454 361.703 7.38764 361.793 7.118C361.884 6.84836 362.036 6.60336 362.238 6.40232C362.44 6.20127 362.685 6.04968 362.956 5.95949C363.227 5.8693 363.515 5.84299 363.797 5.88262H367.892V0.0361267H348.921V5.88262H353.015C353.298 5.84299 353.586 5.8693 353.856 5.95949C354.127 6.04968 354.373 6.20127 354.575 6.40232C354.777 6.60336 354.929 6.84836 355.019 7.118C355.11 7.38764 355.136 7.67454 355.097 7.95609V9.68964V57.2774V59.0109C355.097 60.4046 354.414 61.0504 353.015 61.0504H348.921V66.8969H367.892V61.2204H363.797C363.513 61.2676 363.222 61.2466 362.948 61.159C362.674 61.0715 362.425 60.9201 362.221 60.7173C362.017 60.5145 361.865 60.2662 361.778 59.993C361.69 59.7199 361.669 59.4298 361.716 59.1469V35.353H369.018C372.43 35.353 374.307 36.2028 375.091 37.8344L387.204 62.0702C387.906 63.7579 389.093 65.2009 390.616 66.2171C392.492 66.9059 394.491 67.1954 396.485 67.0669H399.897V61.2204H398.021C395.428 61.2204 394.199 60.9145 393.346 59.0109H393.483ZM292.109 18.9013H285.66V34.0274H295.521V31.1721C295.482 30.8906 295.508 30.6037 295.599 30.334C295.689 30.0644 295.841 29.8194 296.043 29.6183C296.245 29.4173 296.491 29.2657 296.762 29.1755C297.032 29.0853 297.32 29.059 297.603 29.0986H304.154V67.0329H316.199V29.0986H322.613C322.897 29.0514 323.189 29.0725 323.463 29.16C323.737 29.2475 323.986 29.3989 324.19 29.6017C324.393 29.8045 324.545 30.0528 324.633 30.326C324.721 30.5991 324.742 30.8892 324.695 31.1721V34.0274H334.556V18.9013H292.109ZM687.912 19.5811H682.112V25.2236V31.0022H687.605V27.2291C687.565 26.9476 687.592 26.6607 687.682 26.391C687.773 26.1214 687.925 25.8764 688.127 25.6754C688.329 25.4743 688.575 25.3227 688.845 25.2325C689.116 25.1423 689.404 25.116 689.687 25.1557H701.526V66.9649H707.975V25.2236H719.952C720.236 25.1764 720.527 25.1975 720.801 25.285C721.075 25.3725 721.325 25.5239 721.528 25.7267C721.732 25.9295 721.884 26.1778 721.972 26.451C722.059 26.7241 722.081 27.0142 722.033 27.2971V31.0022H727.527V25.2236V19.5811H687.946H687.912Z" fill="white"/>
</svg>
