<svg width="37" height="36" viewBox="0 0 37 36" fill="none" xmlns="http://www.w3.org/2000/svg">
<g clip-path="url(#clip0)">
<path d="M18.6504 35.5708C28.3545 35.5708 36.2212 27.7041 36.2212 18C36.2212 8.29591 28.3545 0.429184 18.6504 0.429184C8.94631 0.429184 1.07959 8.29591 1.07959 18C1.07959 27.7041 8.94631 35.5708 18.6504 35.5708Z" stroke="white" stroke-miterlimit="10"/>
<path d="M18.6504 22.5923C23.1161 22.5923 26.7363 18.9721 26.7363 14.5064C26.7363 10.0408 23.1161 6.4206 18.6504 6.4206C14.1847 6.4206 10.5646 10.0408 10.5646 14.5064C10.5646 18.9721 14.1847 22.5923 18.6504 22.5923Z" stroke="white" stroke-miterlimit="10"/>
<path d="M5.98083 30.3176C7.17587 27.9851 8.99144 26.0275 11.2276 24.6606C13.4638 23.2937 16.0338 22.5705 18.6547 22.5705C21.2755 22.5705 23.8455 23.2937 26.0817 24.6606C28.3179 26.0275 30.1334 27.9851 31.3285 30.3176" stroke="white" stroke-miterlimit="10"/>
</g>
<defs>
<clipPath id="clip0">
<rect width="36" height="36" fill="white" transform="translate(0.650391)"/>
</clipPath>
</defs>
</svg>
