<svg width="71" height="79" viewBox="0 0 71 79" fill="none" xmlns="http://www.w3.org/2000/svg">
<path d="M65.3873 72.7489C64.9746 72.636 64.1694 71.4039 63.5223 70.9881C62.8752 70.5723 62.5032 70.0794 62.6 69.8946C62.6968 69.7098 62.9924 68.7344 63.5682 69.0373C64.144 69.3402 63.8688 69.5507 64.3529 70.064C64.3274 69.5507 64.5822 68.8576 64.2357 68.5239C64.0201 68.3471 63.7644 68.2269 63.4914 68.174C63.2184 68.1212 62.9366 68.1373 62.6713 68.221C62.5796 67.7077 62.0038 67.8976 61.6522 68.6831C61.4418 69.2244 61.0896 69.6981 60.6331 70.0538C60.47 70.1205 60.521 70.6801 61.3006 71.0035C62.0802 71.3269 62.5235 71.7684 62.5694 72.0302C62.6153 72.292 62.4318 72.8875 61.9223 72.636C61.4127 72.3844 60.0827 71.6811 59.9452 71.2191C59.8441 70.9123 59.7162 70.6151 59.563 70.331C59.563 70.331 60.1847 67.8463 59.7464 66.2241C60.1616 66.1188 60.6 66.1586 60.9898 66.337C60.9898 66.337 60.8063 65.0382 58.9872 63.2979C59.4967 63.2055 59.8178 63.0874 60.0725 63.2517C59.563 62.3841 57.7897 61.6757 57.6063 61.4652C57.4228 61.2547 57.9528 60.9056 59.6088 61.3009C61.2649 61.6962 61.8458 61.2342 61.9121 62.8102C62.5796 61.419 62.5592 60.536 60.8929 60.1869C59.2267 59.8378 58.0139 59.2372 58.0801 58.8419C58.1464 58.4466 58.2687 56.9373 57.6674 56.0133C57.3216 55.4232 56.9368 54.8573 56.5158 54.3191C56.3888 54.1409 56.2084 54.0084 56.0012 53.9409C55.7939 53.8735 55.5707 53.8747 55.3642 53.9444C54.8546 54.1087 53.9119 53.621 53.6826 53.3643C53.4533 53.1076 53.8661 52.625 53.173 52.276C52.48 51.9269 52.0877 52.5788 51.4456 51.9987C50.8672 51.4474 50.4316 50.7618 50.1768 50.0018C50.0392 49.4884 49.9475 49.396 49.6927 49.283C49.4379 49.1701 48.7704 49.3755 48.1284 49.1906C47.6608 49.3495 47.2294 49.6008 46.8595 49.9299C46.5884 50.3132 46.4024 50.751 46.3143 51.2133C46.2192 51.5871 46.2192 51.9791 46.3143 52.353C46.3143 52.353 47.1194 51.9012 47.3334 51.9474C47.5475 51.9936 47.4812 52.2144 47.6647 52.353C47.8261 52.2345 48.0203 52.1699 48.2201 52.1682C48.235 52.2684 48.266 52.3655 48.3118 52.4556C48.6787 52.4556 48.7347 53.1281 48.8214 53.3643C49.0487 53.8649 49.1619 54.4104 49.1526 54.9609C49.1526 55.7155 49.0711 56.0903 49.4787 56.4393C49.794 56.6868 50.0327 57.0199 50.1666 57.3993C50.2736 57.7022 49.8813 57.6303 49.6571 57.769C49.4328 57.9076 49.0252 57.5277 48.7704 57.3634C48.5156 57.1991 48.3373 56.5882 47.3793 56.7166C47.0401 56.7337 46.712 56.8436 46.4301 57.0345C46.1482 57.2253 45.9232 57.4899 45.7793 57.7998C45.7279 58.0746 45.7279 58.3566 45.7793 58.6314C45.7793 58.6314 46.8493 58.0051 47.15 58.539C47.4506 59.0729 47.043 59.0524 48.1691 59.4528C49.2953 59.8532 50.0239 60.1407 50.3144 60.4282C51.0685 61.1264 49.7488 61.804 50.5182 63.4314C50.5883 63.1669 50.7382 62.931 50.9473 62.7562C51.1564 62.5815 51.4142 62.4765 51.6851 62.456C51.5576 63.3965 51.7575 64.3525 52.2507 65.1614C52.2966 65.0144 52.3791 64.8818 52.4905 64.7763C52.6018 64.6707 52.7382 64.5958 52.8866 64.5587C53.035 64.5216 53.1904 64.5235 53.3378 64.5643C53.4852 64.6052 53.6198 64.6835 53.7285 64.7918C53.9119 65.0536 54.5387 66.0598 53.8202 66.912C53.1017 67.7641 52.5412 68.411 51.945 68.2878C51.3488 68.1646 50.9615 68.411 50.5794 68.2878C50.1972 68.1646 50.6864 67.7744 50.6711 67.0968C50.6558 66.4191 50.2074 64.6686 47.736 64.9766C48.9793 65.5464 48.1691 67.6974 46.9105 67.5434C45.6901 67.3878 44.5701 66.7825 43.7665 65.8442C44.2761 64.4016 44.6124 63.9396 45.9321 64.0474C47.2519 64.1552 46.5283 62.7486 46.4417 62.5073C46.3551 62.266 43.899 56.7166 39.1804 54.0214C36.4186 52.4813 33.9013 52.6713 31.2669 52.8201C31.4361 53.7847 31.4601 54.7694 31.3382 55.7412L31.3025 55.9157L31.4197 55.9568C32.0618 56.2525 32.6265 56.6952 33.0688 57.2495C33.5111 57.8039 33.8189 58.4546 33.9676 59.1499C36.9638 59.3142 40.4187 60.9621 40.2811 64.3503C40.2148 65.377 38.6301 65.4643 37.1472 65.1357C37.7198 65.8442 38.4958 66.357 39.3689 66.604C39.8498 66.7263 40.3465 66.773 40.8416 66.7426C41.3706 66.6978 41.8933 66.5963 42.4009 66.4397C41.9309 66.6925 41.4377 66.8988 40.9282 67.0557C40.4143 67.2 39.8818 67.2658 39.3486 67.2508C38.8155 67.2358 38.2885 67.1317 37.7893 66.9428C37.5506 66.8546 37.3189 66.7482 37.0963 66.6245L37.3867 66.953C37.8963 67.5126 38.4364 68.067 38.9919 68.5855C40.0955 69.6356 41.3066 70.5649 42.6047 71.3577C43.8955 72.1511 45.3046 72.73 46.778 73.0723C47.1414 73.1509 47.5089 73.2092 47.8787 73.2469C48.2485 73.2726 48.6197 73.2726 48.9895 73.2469C49.3666 73.2469 49.7437 73.1955 50.1157 73.1442C50.4876 73.0929 50.8545 73.0159 51.2163 72.9286C51.9237 72.7451 52.6077 72.4798 53.2546 72.138C53.5705 71.9681 53.8752 71.7778 54.1667 71.5682C54.4522 71.3673 54.723 71.146 54.9769 70.9059L55.1603 70.7211L55.3387 70.5363C55.461 70.4131 55.568 70.2796 55.6801 70.1462C55.8916 69.8767 56.0856 69.5937 56.261 69.2991C56.4325 69.0016 56.584 68.6929 56.7145 68.3751C56.7451 68.2929 56.7808 68.2108 56.8062 68.1286C56.8317 68.0465 56.8674 67.9644 56.8929 67.8822C56.954 67.7179 56.9948 67.5485 57.0457 67.3689C57.2251 66.6675 57.3209 65.9472 57.3311 65.223C57.3311 65.0382 57.3311 64.8482 57.3311 64.6583C57.3311 64.6121 57.3311 64.5659 57.3311 64.5197V64.3759C57.3311 64.2784 57.3311 64.1809 57.3311 64.0833L57.3005 63.7958C57.303 63.7463 57.303 63.6966 57.3005 63.647C57.3005 63.7548 57.2648 63.8575 57.2394 63.9653C57.093 64.5324 56.7783 65.041 56.3374 65.4232C56.1178 65.6124 55.8607 65.7524 55.5833 65.8339C55.3124 65.916 55.0236 65.916 54.7527 65.8339C55.1396 65.5675 55.4619 65.2165 55.6954 64.8072C55.9046 64.4456 56.064 64.057 56.1693 63.6521C56.2789 63.2418 56.3371 62.8193 56.3425 62.3944C56.3456 61.9128 56.2856 61.433 56.1642 60.9672C56.5416 61.0486 56.8923 61.2252 57.1833 61.4806C57.4535 61.7244 57.6916 62.0022 57.8916 62.3071C58.0852 62.5946 58.2432 62.8718 58.4012 63.1285C58.5809 63.411 58.8086 63.6595 59.0738 63.8626C58.9785 63.8963 58.8791 63.917 58.7783 63.9242C58.7222 63.9242 58.6661 63.9242 58.605 63.9242H58.4725C58.3712 63.9035 58.2721 63.8726 58.177 63.8318L58.0343 63.7599L57.9069 63.6778C57.8053 63.6112 57.7098 63.5356 57.6215 63.4519C57.9397 63.9513 58.1851 64.4942 58.3502 65.0639C58.408 65.2667 58.4556 65.4723 58.4929 65.6799C58.5286 65.8904 58.5591 66.1008 58.5795 66.3165C58.6228 66.7466 58.6228 67.18 58.5795 67.6101C58.3701 69.3808 57.4947 71.0032 56.1336 72.1431C55.7723 72.4456 55.3853 72.7153 54.9769 72.9491C54.6068 73.1617 54.2219 73.347 53.8253 73.5036C53.046 73.8016 52.2357 74.01 51.41 74.1247C50.6053 74.2421 49.792 74.2884 48.9793 74.2633C48.5819 74.2633 48.1589 74.2633 47.7513 74.1915C47.3471 74.1422 46.9457 74.0719 46.5487 73.981C44.9918 73.5961 43.5021 72.9746 42.1308 72.138C41.4614 71.7301 40.8165 71.2827 40.1995 70.7981C39.5749 70.3153 38.9745 69.8013 38.4008 69.258C37.8301 68.7105 37.2848 68.1389 36.7651 67.5434C36.2453 66.9479 35.7442 66.337 35.2619 65.7107C34.411 64.5576 33.643 63.3447 32.9637 62.0812C32.8261 61.8399 32.6886 61.5678 32.5561 61.3471C31.6796 59.807 31.5369 59.4887 30.9306 59.2628C30.7344 59.1848 30.5249 59.1464 30.314 59.1499C30.1117 59.5134 29.8763 59.8571 29.6108 60.1766L29.4783 60.3204C29.3537 60.4648 29.221 60.6019 29.0808 60.7311C29.2133 60.8697 29.3407 61.0134 29.4681 61.1572C29.9931 61.7974 30.4588 62.4847 30.8592 63.2106C31.6315 64.6674 32.3288 66.1633 32.9484 67.6923C33.2796 68.4469 33.616 69.2016 34.0134 69.9254C34.3955 70.6452 34.8853 71.3014 35.4657 71.8711C35.0533 71.7013 34.6698 71.4675 34.3294 71.178C33.9875 70.8926 33.6704 70.5783 33.3816 70.2386C32.8265 69.5765 32.3271 68.869 31.8885 68.1235C31.0223 66.6758 30.3242 65.223 29.5751 63.9037C29.1316 63.0783 28.6202 62.2918 28.0464 61.5524C26.9983 62.3559 25.9915 63.2126 25.0298 64.1193C25.2103 64.3065 25.3804 64.5036 25.5394 64.7096C26.3811 65.7905 26.9511 67.0603 27.2005 68.411C26.9138 67.7885 26.5545 67.2026 26.1305 66.6656C25.7362 66.1704 25.2768 65.7317 24.7648 65.3616C24.7648 65.4694 24.7648 65.5824 24.7648 65.6953C24.6953 66.6413 24.2732 67.5258 23.5832 68.1713C22.8933 68.8168 21.9866 69.1755 21.045 69.1755C20.1034 69.1755 19.1967 68.8168 18.5068 68.1713C17.8168 67.5258 17.3947 66.6413 17.3252 65.6953C17.3265 64.9025 17.6084 64.1362 18.1201 63.534C18.3775 63.2231 18.6044 62.8879 18.7978 62.533C18.9666 62.2278 19.1164 61.9123 19.2462 61.5884C19.3695 61.0064 19.3107 60.4002 19.0781 59.8532C19.0169 59.7557 17.7634 57.9281 16.9175 56.773C16.5405 57.2402 14.3697 59.961 13.9875 60.5668C13.32 61.6449 12.6015 62.9077 12.9684 65.5516C13.3353 68.1954 14.3748 71.6349 12.1888 72.4922C10.0027 73.3496 5.94662 72.8619 6.13006 69.5455C6.3135 66.2292 9.95179 65.0895 8.24985 63.2568C6.72115 61.6038 5.34533 64.3708 3.1542 64.3914C2.09509 64.4491 1.03319 64.3558 0 64.1141C0 64.1141 2.8077 65.3924 4.53003 64.684C6.25236 63.9755 6.72115 63.3595 7.20524 63.9858C7.68933 64.6121 6.37465 65.3103 5.47782 66.7272C4.58098 68.144 3.43956 71.3474 5.36062 73.8732C7.28167 76.3989 10.4053 76.7942 13.0041 76.3322C15.2054 75.9369 16.6933 74.7562 17.4526 72.9645C17.0934 72.5304 16.8013 72.044 16.5863 71.522C16.3959 71.0445 16.2459 70.5516 16.1379 70.0486C16.3865 70.447 16.6641 70.8262 16.9685 71.1832C17.2691 71.5264 17.6115 71.8299 17.9876 72.0867C19.275 72.6931 20.7006 72.9396 22.1151 72.8003H22.1508H22.268L22.5075 72.7592C22.8651 72.6876 23.2175 72.5915 23.5623 72.4717L23.7406 72.405L24.1075 72.251C24.2298 72.1945 24.3521 72.1277 24.4744 72.061C24.5916 71.9891 24.7139 71.9173 24.8311 71.8351L24.9992 71.7119L25.0553 71.6657H25.0859C25.4533 71.3396 25.7941 70.9842 26.105 70.6031C25.9878 70.7673 25.6617 71.5066 25.5648 71.6298C25.6362 71.9173 25.8553 72.7797 26.1763 73.9296C26.4362 74.8691 26.4821 74.6381 27.5878 74.7151C27.9941 74.7605 28.3829 74.9069 28.719 75.1412C30.5076 74.443 31.5675 71.5476 30.3751 69.0938C31.3637 70.5312 32.8822 74.4995 34.5434 74.3609C34.7609 74.3466 34.9734 74.2889 35.1685 74.191C35.3636 74.0931 35.5373 73.957 35.6797 73.7907C35.822 73.6243 35.93 73.4311 35.9974 73.2223C36.0647 73.0135 36.0901 72.7932 36.0721 72.5744C36.0721 72.5744 39.4963 76.7172 48.6685 76.7532C51.3043 76.7807 53.8826 75.9765 56.0419 74.4533C56.6839 74.1299 57.3515 74.0118 58.4114 74.7562C59.4713 75.5005 60.9592 76.1936 61.1528 76.517C61.3465 76.8404 63.3185 77.0971 63.665 76.2655C64.0115 75.4338 65.0459 74.941 65.3669 74.5714C65.6879 74.2017 65.8051 72.867 65.3873 72.7489ZM51.41 55.7309C51.0978 55.4124 50.853 55.0334 50.6901 54.617C50.5272 54.2006 50.4497 53.7552 50.4622 53.3078C51.0415 53.8919 51.6842 54.4085 52.3781 54.8479C52.3781 54.8479 52.0469 55.6436 51.41 55.7309ZM53.0813 60.2793C53.1119 60.4538 53.1476 60.6387 53.173 60.8389C53.1992 61.0606 53.1992 61.2846 53.173 61.5062C53.1627 61.6403 53.1318 61.7719 53.0813 61.8964C53.0538 61.9656 53.0178 62.0312 52.9743 62.0915C52.926 62.1523 52.8694 62.2059 52.8062 62.2506C52.7481 62.2905 52.6846 62.3217 52.6176 62.343C52.5574 62.3583 52.4961 62.3686 52.4342 62.3738C52.3765 62.3791 52.3186 62.3791 52.2609 62.3738L52.0979 62.3328L52.2253 62.225C52.2609 62.1942 52.2966 62.1531 52.3272 62.1223C52.3835 62.0674 52.424 61.9983 52.4444 61.9221C52.4444 61.9221 52.4444 61.8656 52.4444 61.8399C52.4444 61.8143 52.4444 61.7937 52.4444 61.7578C52.4444 61.7219 52.4087 61.6346 52.3883 61.5678C52.2549 61.2104 52.1493 60.8431 52.0724 60.4692C52.0337 60.2439 52.0234 60.0145 52.0418 59.7865C52.0588 59.5413 52.1246 59.3021 52.2354 59.0832C52.3521 58.8776 52.5143 58.7019 52.7093 58.5698L52.8571 58.4774L53.0151 58.4107C53.1178 58.3694 53.2259 58.3434 53.3361 58.3337C53.2433 58.5132 53.1616 58.6984 53.0915 58.8881C53.0373 59.0439 53.003 59.2061 52.9896 59.3707C52.9811 59.676 53.0102 59.9812 53.0762 60.2793H53.0813ZM55.1196 63.1798C54.9712 63.5052 54.7299 63.7786 54.4266 63.9653L54.3756 64.0012H54.3196L54.2075 64.0577C54.1342 64.0934 54.0573 64.121 53.9782 64.1398C53.8272 64.1828 53.6713 64.2052 53.5145 64.2065C53.6062 64.0731 53.6979 63.9653 53.7743 63.8421C53.8155 63.7874 53.8513 63.729 53.8813 63.6675C53.9159 63.6115 53.9465 63.5532 53.9731 63.493C54.0742 63.2891 54.1365 63.068 54.1565 62.841C54.1601 62.366 54.1088 61.8923 54.0036 61.4292C53.9578 61.1674 53.9068 60.8851 53.8762 60.5873C53.8405 60.2735 53.8405 59.9566 53.8762 59.6427C53.9155 59.2925 54.0436 58.9584 54.2482 58.6725C54.4493 58.3977 54.7494 58.2134 55.0839 58.1591C55.0482 58.2361 55.0126 58.3029 54.9769 58.3645L54.9005 58.5595C54.8794 58.6217 54.8624 58.6851 54.8495 58.7495C54.8446 58.8093 54.8446 58.8694 54.8495 58.9292C54.8361 59.1605 54.8585 59.3926 54.9158 59.6171C55.0177 60.0894 55.1909 60.6027 55.2979 61.188C55.3554 61.4976 55.381 61.8124 55.3744 62.1274C55.3605 62.4943 55.2665 62.8536 55.0992 63.1798H55.1196Z" fill="#C79C67"/>
<path d="M70.0294 44.0926C69.9071 43.7333 69.7543 41.9724 69.6167 41.803C69.4791 41.6336 68.7249 41.4129 68.4651 41.2126C68.0378 40.8168 67.6658 40.3643 67.3593 39.8676C67.0689 39.3902 67.0077 38.23 66.9466 38.0093C66.6447 37.5351 66.2534 37.1252 65.7949 36.8028C65.344 36.4844 64.8375 36.2544 64.3019 36.1252C63.9503 35.9712 63.7924 35.8018 63.242 35.4886C62.3438 34.8293 61.5603 34.0243 60.9235 33.1066C60.9541 32.8756 61.3566 32.4598 61.2955 31.854C61.2343 31.2482 61.0458 31.469 60.9694 30.894C60.863 29.4747 60.8273 28.0509 60.8624 26.628C60.9082 25.3702 60.9541 24.8158 60.5872 24.2716C60.2203 23.7275 60.0216 23.1936 59.5681 23.0806C59.1146 22.9677 58.233 22.8188 58.0037 23.0498C57.9426 23.1474 57.3107 23.671 57.0508 23.9944C56.7909 24.3178 56.7757 25.0211 56.6686 25.2932C56.2236 26.1129 55.7354 26.908 55.2062 27.6752C54.7302 28.2101 54.2195 28.7126 53.6775 29.1794C53.5093 29.3026 52.7552 29.6568 52.373 29.934C51.9908 30.2113 51.9399 30.2934 51.9399 30.1086C51.9608 29.6694 51.9144 29.2296 51.8023 28.8046C51.6647 28.589 51.3896 28.0808 51.038 27.552C50.6864 27.0233 50.559 27.0746 49.8405 26.782C49.3606 26.5864 48.9304 26.2846 48.5819 25.899C48.5124 25.718 48.4695 25.5278 48.4545 25.3343C48.3573 24.7966 48.1414 24.2878 47.8226 23.8455C47.2962 23.1682 46.6748 22.5716 45.978 22.0744C45.0608 21.3146 44.9589 20.9142 44.9945 20.4522C45.0536 20.4695 45.1163 20.4697 45.1754 20.4526C45.2345 20.4356 45.2877 20.4021 45.3287 20.3559C45.3697 20.3098 45.3969 20.2529 45.4072 20.1918C45.4175 20.1307 45.4105 20.0679 45.3869 20.0107C45.3257 19.831 45.4175 19.9388 45.4939 19.7335C45.5703 19.5281 45.1933 19.3587 45.1015 19.1123C44.9979 18.7135 44.9788 18.2972 45.0455 17.8905C46.1003 17.7262 46.1359 18.8043 46.1207 19.1431C46.1054 19.4819 46.1207 19.8259 46.2582 19.8618C46.3958 19.8978 46.7219 20.4214 46.9411 20.4419C47.1602 20.4625 48.1742 20.4419 48.4698 20.4419C48.7653 20.4419 48.8876 20.0723 48.8621 19.7797C48.8794 19.4392 48.9905 19.1103 49.1831 18.83C49.2901 18.7376 49.2188 18.2037 49.1831 17.9829C48.9213 17.5649 48.608 17.1819 48.2506 16.8433C48.0901 16.5521 47.9668 16.2416 47.8838 15.9192C48.057 15.8371 48.1385 15.6984 48.0468 15.3237C48.0397 15.2766 48.022 15.2317 47.995 15.1926C47.9681 15.1534 47.9326 15.1209 47.8913 15.0977C47.85 15.0744 47.804 15.0609 47.7568 15.0583C47.7096 15.0556 47.6624 15.0639 47.6188 15.0824C47.6188 15.0824 47.1704 13.3164 46.9462 12.4694C46.816 11.8915 46.816 11.2916 46.9462 10.7137C46.9767 10.3389 46.4366 9.98471 45.6875 9.39947C46.3805 8.65509 46.8391 7.78751 46.5028 6.62731C46.4111 7.26388 45.234 7.62323 45.234 7.62323C45.234 7.62323 45.555 6.86859 45.0608 6.65811C44.9945 7.07393 44.3117 7.0072 43.4607 7.48462C43.4913 7.00096 43.42 6.51624 43.2513 6.06235C43.0827 5.60845 42.8207 5.19564 42.4824 4.85107C42.3652 5.31309 41.1116 5.91373 40.9843 7.27414C40.2499 6.53444 39.3034 6.04598 38.2785 5.87779C38.3436 6.04557 38.3669 6.22686 38.3465 6.40583C38.3261 6.5848 38.2625 6.75601 38.1613 6.90452C37.0395 6.55093 35.8249 6.65413 34.7778 7.19201C36.23 7.49489 36.6835 8.01852 36.6835 8.01852C36.6835 8.01852 36.4287 8.59862 34.5077 8.53189C32.3573 8.47028 31.807 9.69209 31.807 9.69209C32.1175 9.66074 32.431 9.69215 32.7293 9.78449C32.2503 10.0001 31.0681 10.9909 30.9305 11.7969C31.4676 11.595 32.0615 11.6115 32.5866 11.8431C32.5866 12.1049 31.5675 13.0957 30.5025 13.8965C29.4375 14.6974 29.4834 15.5855 29.7178 16.0629C29.9093 15.9017 30.151 15.8134 30.4006 15.8134C30.6502 15.8134 30.8919 15.9017 31.0834 16.0629C30.7526 16.2459 30.47 16.5058 30.2591 16.821C30.0481 17.1362 29.915 17.4976 29.8707 17.8751C30.145 17.7085 30.4472 17.5937 30.7624 17.5363C30.3955 18.1677 30.1764 19.4049 30.7624 19.9337C30.6911 19.5076 31.5369 18.7684 31.5369 18.7684C31.6552 19.2638 31.6914 19.7755 31.6439 20.2828C31.5907 20.7381 31.6218 21.1993 31.7357 21.6432C30.9643 21.4095 30.2482 21.02 29.6312 20.4984C29.3091 20.2454 29.0152 19.9579 28.7547 19.6411C28.6398 19.9315 28.507 20.2143 28.3572 20.4881C27.9955 21.135 27.5188 21.7092 26.9508 22.1822C26.3799 22.6679 25.6992 23.0046 24.9686 23.1628C24.878 23.184 24.7861 23.1994 24.6935 23.209C24.6052 23.214 24.5168 23.214 24.4285 23.209C24.2588 23.2188 24.0887 23.2188 23.9189 23.209C23.577 23.2029 23.2362 23.1686 22.8998 23.1063C22.3031 22.9904 21.7251 22.7917 21.1826 22.5159L26.7878 29.1897C27.0952 28.9385 27.4168 28.7053 27.7509 28.4915C28.152 28.2367 28.5749 28.0185 29.0146 27.8395C29.4749 27.6464 29.964 27.5319 30.4617 27.5007C30.5907 27.493 30.72 27.493 30.849 27.5007C30.3395 27.1875 29.891 26.9873 29.4528 26.6844C28.5764 26.0787 27.3789 24.631 26.905 24.631C27.2472 23.91 27.5384 23.1654 27.7763 22.403C29.1114 23.517 31.0477 23.7942 31.4146 23.8866C31.7815 23.979 33.03 24.9133 33.4529 25.093C33.4529 25.437 33.4886 26.0273 33.4529 26.669L35.2058 27.8806L35.5064 28.0911C35.8453 28.2689 36.2099 28.392 36.5867 28.4555C36.9889 28.5241 37.3981 28.5413 37.8046 28.5069C38.2124 28.4685 38.6125 28.3699 38.9919 28.2143C39.1857 28.141 39.3732 28.0517 39.5524 27.9473C39.7315 27.8415 39.9019 27.7213 40.0619 27.588L40.1893 27.4904L40.2505 27.4442L40.3065 27.3877L40.6072 27.2081C40.6471 27.1713 40.6846 27.1318 40.7193 27.09L40.8263 26.9668L40.9333 26.8384L40.9893 26.7768L41.0352 26.7101L41.2187 26.438L41.3155 26.2994L41.4021 26.1505L41.5753 25.8579C41.5859 25.8323 41.5996 25.8082 41.6161 25.7861L41.6518 25.7039L41.7282 25.5499C42.1302 24.6916 42.4246 23.7863 42.6047 22.8547L42.7321 22.136C42.7321 22.0744 42.7321 22.018 42.7575 21.9564V21.7715L42.7983 21.4122L42.8391 21.0477C42.8391 20.9245 42.8391 20.8013 42.8696 20.6781L42.9155 19.944C42.9155 19.6976 42.9155 19.4306 42.9155 19.1996V18.83V18.4809V17.9675C42.5243 17.8455 42.1413 17.698 41.769 17.526C41.395 17.3368 41.04 17.1116 40.7091 16.8535C40.3587 16.6049 40.0433 16.3096 39.7715 15.9757C39.4928 15.6405 39.2754 15.2581 39.1294 14.8463C39.0887 14.7436 39.0683 14.6358 39.0377 14.5331C39.0071 14.4304 38.997 14.3175 38.9766 14.2148C38.9562 13.9997 38.9562 13.7831 38.9766 13.568C39.0123 13.1517 39.1301 12.7468 39.3231 12.377C39.6998 11.6858 40.2543 11.1095 40.9282 10.7086C40.3611 11.1956 39.9336 11.8266 39.69 12.5361C39.5846 12.8605 39.5479 13.2035 39.5821 13.543C39.6163 13.8825 39.7208 14.2111 39.8887 14.5074C40.2365 15.0729 40.7465 15.5186 41.3511 15.7857C41.6588 15.9253 41.9775 16.0386 42.304 16.1245C42.4902 16.1747 42.679 16.2141 42.8696 16.2426C42.7422 14.4972 42.5078 12.7517 42.2123 11.0166C42.62 12.5567 42.9817 14.0968 43.262 15.6625H43.3181L43.5474 15.6163L43.7716 15.5804C44.0654 15.5344 44.3613 15.5035 44.6582 15.488C44.9536 15.4726 45.2495 15.4726 45.5449 15.488C45.8375 15.4931 46.1285 15.5345 46.4111 15.6112C46.1271 15.6257 45.8462 15.6775 45.5754 15.7652C45.3054 15.8473 45.0659 15.9397 44.7805 16.0475C44.4951 16.1553 44.2709 16.2683 44.0213 16.3915L43.8378 16.489C43.7783 16.5202 43.7205 16.5545 43.6646 16.5917C43.5831 16.6376 43.5048 16.6891 43.4302 16.7457C43.4302 16.8124 43.4556 16.8792 43.4658 16.9459L43.5219 17.3207L43.5626 17.6954L43.6493 18.4501V18.64V18.83L43.6748 19.2099C43.6748 19.4665 43.7155 19.7232 43.7257 19.9748V20.7397C43.7257 20.868 43.7257 20.9912 43.7257 21.1196V21.5046V21.8896V22.0744C43.7257 22.1412 43.7257 22.2028 43.7257 22.2695L43.6646 23.0396C43.5587 24.0918 43.3225 25.1266 42.9614 26.1197L42.89 26.3097L42.8544 26.4021L42.8136 26.4945L42.6403 26.8692L42.5537 27.0541C42.5231 27.1157 42.4824 27.1721 42.4518 27.2337L42.2429 27.5931L42.2378 27.6701L42.1817 27.7522L42.0594 27.9268L41.9371 28.0962C41.8974 28.1561 41.8531 28.2127 41.8047 28.2656C41.6243 28.4881 41.4284 28.6974 41.2187 28.8919C41.0091 29.0936 40.7861 29.2806 40.5511 29.4515C40.3141 29.6196 40.0655 29.7706 39.8072 29.9032C39.5365 30.0409 39.2574 30.1609 38.9715 30.2626C39.5524 30.5501 40.1588 30.8324 40.7702 31.1764C41.1379 31.377 41.4801 31.6218 41.7894 31.9053C41.9673 32.0648 42.1187 32.252 42.2378 32.4598C42.4191 32.7701 42.5076 33.1267 42.4926 33.4865C42.4926 33.5892 42.4926 33.6919 42.4926 33.7945C42.4664 33.9967 42.429 34.1972 42.3805 34.3952C42.2995 34.7719 42.1922 35.1425 42.0594 35.504C41.8047 36.2073 41.504 36.8696 41.29 37.5575C41.0535 38.2447 40.9547 38.9723 40.9995 39.6982C40.9178 39.3378 40.8768 38.9693 40.8772 38.5996C40.8804 38.2261 40.9145 37.8534 40.9792 37.4856C41.0964 36.7464 41.3002 36.0277 41.4429 35.3295C41.5136 34.9909 41.5613 34.6479 41.5855 34.3028C41.5964 34.1318 41.5964 33.9603 41.5855 33.7894C41.5769 33.6388 41.5547 33.4893 41.5193 33.3428C41.4349 33.1033 41.2735 32.8991 41.0607 32.7627C40.7918 32.5874 40.5026 32.446 40.1995 32.3417C39.5677 32.0953 38.8645 31.8951 38.1613 31.6589C37.44 31.4264 36.7308 31.1574 36.0364 30.853C35.6848 30.6938 35.3383 30.5244 34.9918 30.3396L34.7523 30.2112L34.5943 30.1445C34.3956 30.0213 34.2121 29.893 34.0185 29.7698L32.928 29.051C32.7617 28.9953 32.5913 28.9524 32.4185 28.9227H32.342C32.3166 28.9203 32.291 28.9203 32.2656 28.9227H32.1178C32.0687 28.9179 32.0192 28.9179 31.9701 28.9227H31.8274H31.6847C31.5964 28.9176 31.508 28.9176 31.4197 28.9227C31.3739 28.9202 31.328 28.9202 31.2821 28.9227H31.1548L30.8898 28.9792L30.7624 29.01L30.6299 29.0408C30.2902 29.1366 29.9335 29.2547 29.5598 29.395C29.1872 29.5458 28.8232 29.7171 28.4694 29.9084C28.1942 30.047 27.9241 30.1958 27.654 30.355L41.2187 46.3514C42.8085 45.2169 44.0824 42.8862 44.276 42.4807C45.1441 42.6269 46.0207 42.716 46.9003 42.7476C47.6544 42.7168 48.1589 41.8646 50.08 40.2527C51.2182 39.3344 52.186 38.2203 52.9386 36.962C53.2495 36.4948 54.4673 36.1714 55.3489 35.5656C55.8687 35.2118 56.3488 34.8021 56.7807 34.3438C57.2257 34.4053 57.6665 34.4945 58.1005 34.6108C57.9736 34.9602 57.829 35.3029 57.6674 35.6375C57.5298 35.8891 57.7336 36.2433 57.9477 36.4743C58.1617 36.7053 58.605 37.501 58.9668 37.5575C59.3286 37.614 59.349 37.0955 59.4763 36.7053C59.6638 36.3012 59.9075 35.9261 60.1999 35.5913C60.54 35.6724 60.8663 35.8039 61.1681 35.9815C61.6267 36.2587 63.1758 37.4343 63.6701 37.8347C64.1643 38.2351 64.2968 39.0411 64.5924 39.4775C64.8879 39.9138 65.5249 39.7855 65.8204 39.7547C66.116 39.7239 66.33 40.1089 66.5236 40.2681C66.649 40.4305 66.7384 40.618 66.7858 40.8182C66.8333 41.0183 66.8377 41.2263 66.7988 41.4283C66.6918 41.7414 66.6612 42.5577 66.5848 43.0402C66.5083 43.5228 67.1402 43.7487 67.7058 44.0156C68.2714 44.2826 69.153 44.8935 69.6574 44.9602C70.1619 45.0269 70.1517 44.4468 70.0294 44.0926ZM41.9015 10.8318C41.7279 10.8328 41.558 10.7819 41.4132 10.6855C41.2684 10.589 41.1552 10.4515 41.0881 10.2902C41.021 10.129 41.0029 9.9513 41.0361 9.77968C41.0694 9.60806 41.1525 9.45025 41.2748 9.32624C41.3972 9.20224 41.5534 9.11763 41.7235 9.08315C41.8937 9.04866 42.0701 9.06584 42.2306 9.13252C42.391 9.1992 42.5282 9.31237 42.6248 9.45768C42.7213 9.603 42.7728 9.77391 42.7728 9.94877C42.7728 10.1821 42.6812 10.4059 42.5179 10.5713C42.3547 10.7368 42.133 10.8304 41.9015 10.8318ZM59.3439 30.5244C59.3897 30.6476 58.87 31.2226 58.8343 31.6076C58.1277 31.2276 57.3463 31.0102 56.5463 30.971C56.5463 30.971 57.2037 28.9176 57.5247 28.1886C57.8403 27.5873 58.2105 27.0168 58.6305 26.4842C58.9781 26.9482 59.2436 27.4692 59.4152 28.0243C59.5273 28.6814 59.298 30.4012 59.3439 30.5244Z" fill="#004F98"/>
<path d="M26.3444 31.1253C25.6209 31.5822 24.9126 32.075 24.1584 32.5832C24.3367 32.1621 24.5587 31.7611 24.8208 31.3871C25.0769 31.0111 25.3596 30.6542 25.6667 30.3193C25.789 30.179 25.9164 30.0455 26.0489 29.9189L17.8959 20.2368C17.823 20.2447 17.7496 20.2447 17.6767 20.2368C17.3808 20.2368 17.0969 20.1184 16.8877 19.9075C16.6784 19.6967 16.5608 19.4107 16.5608 19.1125C16.5625 18.9756 16.5884 18.84 16.6372 18.7121L12.9837 14.3742C12.2296 14.4971 11.4841 14.6685 10.7518 14.8876C10.8987 15.4244 11.1091 15.9414 11.3785 16.4277L11.455 16.5355L11.511 16.6073L11.5722 16.6946L11.6384 16.7973L11.7098 16.9153C11.7883 17.0575 11.8483 17.2094 11.8881 17.3671C12.0693 17.6376 12.2814 17.8857 12.52 18.1064C13.0254 18.567 13.6452 18.881 14.3136 19.015C15.0478 19.1538 15.8012 19.1538 16.5353 19.015C16.1743 19.1357 15.8046 19.2284 15.4296 19.2922C15.056 19.3563 14.677 19.3821 14.2983 19.3692C13.9247 19.3658 13.5531 19.314 13.1926 19.2152C12.8343 19.1021 12.4918 18.9434 12.1735 18.7429C12.0461 18.6659 11.9289 18.5786 11.8117 18.4914L11.776 18.5684C11.776 18.6197 11.7199 18.6659 11.6945 18.7121C11.4925 19.0208 11.2371 19.2903 10.9403 19.5078C10.6957 19.7029 10.4613 19.8569 10.2473 20.0212C10.0247 20.1769 9.85701 20.3998 9.76831 20.6578C9.75274 20.3855 9.82031 20.115 9.96195 19.8826C9.84671 19.7962 9.72391 19.7206 9.59506 19.6567C9.43403 19.5773 9.26237 19.522 9.0855 19.4924C8.97595 19.4724 8.86537 19.4587 8.75428 19.4514C8.75428 19.5078 8.80014 19.5694 8.82562 19.631C8.88404 19.7667 8.93508 19.9056 8.97849 20.0469C9.04854 20.2521 9.08804 20.4666 9.09569 20.6834C9.09569 20.745 9.09569 20.8066 9.09569 20.8734L9.56958 21.0839L9.92628 21.2481L10.069 21.32L10.2065 21.1609C10.3594 20.9863 10.5174 20.7861 10.7161 20.5756C10.844 20.447 10.9859 20.3334 11.139 20.2368C11.2419 20.1679 11.3533 20.1127 11.4703 20.0725C11.6223 20.0183 11.7829 19.9923 11.9442 19.9955C12.0333 19.9957 12.1222 20.006 12.2091 20.0263L12.3365 20.0623H12.3773L12.5556 20.129C12.6728 20.1752 12.79 20.2214 12.9072 20.2779C13.1595 20.3833 13.4032 20.5086 13.6359 20.6526C13.9004 20.8142 14.1406 21.013 14.3493 21.243C14.4665 21.3732 14.5691 21.5161 14.655 21.6691C14.6992 21.7504 14.7384 21.8344 14.7722 21.9206L14.8181 22.049V22.1311C15.0454 22.9542 15.4108 23.732 15.8984 24.431C16.1612 24.7676 16.4565 25.0771 16.7799 25.3551C17.1213 25.6579 17.4831 25.9762 17.8245 26.3202C18.171 26.6678 18.496 27.0363 18.7978 27.4239C19.0945 27.7994 19.3717 28.1901 19.6284 28.5944C20.1311 29.3971 20.5674 30.2402 20.9329 31.115C20.4416 30.3216 19.9056 29.5572 19.3277 28.8254C19.0373 28.466 18.7366 28.1118 18.4207 27.7987C18.0986 27.4634 17.7584 27.1463 17.4016 26.8489C17.0449 26.5512 16.678 26.274 16.306 25.9916C15.9221 25.7078 15.567 25.3862 15.2461 25.0316C15.0603 24.8184 14.89 24.592 14.7366 24.354C14.7757 24.4616 14.8014 24.5737 14.813 24.6877C14.8498 25.0032 14.822 25.3229 14.7315 25.6271C14.6472 25.9214 14.5274 26.2042 14.3748 26.4691C14.3034 26.5974 14.2219 26.7206 14.1404 26.8387C14.0588 26.9567 13.9773 27.0748 13.8907 27.1826C13.5555 27.6036 13.1819 27.9921 12.7747 28.3428C12.4053 28.6692 12.0192 28.9759 11.618 29.2618C10.818 29.8265 10.018 30.2885 9.22308 30.8018C8.82052 31.038 8.42816 31.2741 8.0256 31.5308C7.82178 31.654 7.62305 31.7926 7.41412 31.9364L6.77207 32.4189C6.96437 31.9586 7.2181 31.5268 7.52623 31.1355C7.83618 30.7456 8.17701 30.3816 8.54536 30.0472C9.28591 29.3867 10.0689 28.7762 10.8894 28.2196C11.7092 27.6639 12.5001 27.0659 13.2588 26.428C13.6319 26.0969 13.9531 25.7109 14.2117 25.2832C14.338 25.0695 14.4308 24.8375 14.4869 24.5953C14.5353 24.353 14.5353 24.1034 14.4869 23.8612V23.815C14.2646 23.3913 14.0689 22.9541 13.9009 22.5059L13.8703 22.4237L13.8448 22.3621C13.8269 22.3179 13.8028 22.2765 13.7735 22.2389C13.7246 22.1557 13.6646 22.0797 13.5951 22.0131C13.4428 21.8699 13.2712 21.7489 13.0856 21.6537C12.8935 21.5503 12.6943 21.4611 12.4894 21.3867L12.1735 21.2738L12.0104 21.2225H11.9696H11.9391C11.8884 21.2328 11.8411 21.2558 11.8015 21.2892C11.7274 21.3435 11.6591 21.4055 11.5976 21.474C11.4487 21.6369 11.3091 21.8083 11.1798 21.9874C11.0255 22.1941 10.8551 22.3881 10.6702 22.5675C10.6103 22.6229 10.5455 22.6727 10.4766 22.7164C10.3847 22.7735 10.2825 22.8118 10.176 22.8293C10.0376 22.847 9.89726 22.8219 9.77341 22.7574L9.69697 22.7061H9.6664L9.62563 22.6445C9.44086 22.5449 9.24827 22.4608 9.04983 22.3929C8.83581 22.3108 8.6116 22.2338 8.3823 22.1414C8.27019 22.0901 8.15299 22.0387 8.0307 21.972C7.96352 21.9372 7.89882 21.8977 7.83706 21.8539C7.75978 21.7997 7.68959 21.7359 7.62814 21.664C7.58663 21.6152 7.55073 21.5618 7.52113 21.5048C7.48709 21.4282 7.46476 21.3469 7.45489 21.2635C7.44937 21.1768 7.45973 21.0898 7.48546 21.0069C7.50672 20.9394 7.53762 20.8754 7.57719 20.8169L7.60266 20.781C7.59035 20.7093 7.57159 20.6388 7.54661 20.5705C7.51604 20.4781 7.47527 20.3857 7.42941 20.283C7.33769 20.0828 7.23068 19.8672 7.12877 19.6362C7.05048 19.453 6.98576 19.2643 6.93513 19.0715C6.90456 19.0715 6.93513 18.9996 6.93513 18.9996L6.90456 18.8507C6.87952 18.6805 6.87952 18.5076 6.90456 18.3374C6.92982 18.1568 6.9886 17.9827 7.07781 17.824L7.30712 17.403L7.81668 17.67C7.88393 17.7091 7.95857 17.7336 8.03579 17.7419C8.15114 17.7503 8.26695 17.7503 8.3823 17.7419C8.64727 17.7419 8.97339 17.7419 9.30461 17.7419C9.65303 17.7626 9.99647 17.8353 10.3237 17.9575C10.5 18.0214 10.6704 18.1004 10.8333 18.1936C10.8383 18.1373 10.8383 18.0806 10.8333 18.0242C10.8404 17.8852 10.8009 17.7478 10.7212 17.6341C10.6391 17.5259 10.5432 17.4293 10.4358 17.3466C10.3296 17.2574 10.2291 17.1614 10.1352 17.0591C9.95162 16.8548 9.79569 16.627 9.67149 16.3814C9.62563 16.2839 9.57977 16.1864 9.53901 16.0888C9.37085 15.8116 8.89186 13.7068 8.38739 12.1975C8.00024 10.8869 7.81296 9.52465 7.83197 8.15736V8.09575L12.576 13.7428L13.5951 13.6606L7.89821 6.90475C7.94407 6.34005 8.00012 5.80101 8.00012 5.57C8.00012 5.15418 7.14915 5.22091 7.01157 4.73322C6.98131 4.63491 6.93 4.54449 6.86126 4.46835C6.79253 4.3922 6.70804 4.33218 6.61376 4.29252C6.51949 4.25287 6.41772 4.23454 6.31565 4.23884C6.21357 4.24313 6.11368 4.26995 6.02301 4.31739L5.82938 4.44573L3.79112 2.03292L4.6319 1.31421L4.09686 0.677641L3.26118 1.39635L2.08408 0L1.47261 0.539032L2.6446 1.93538L1.80382 2.65409L2.34396 3.29066L3.16436 2.56682L5.14147 4.92316C4.88131 5.09565 4.63586 5.28969 4.4077 5.50326C4.24973 5.70861 4.54528 6.86881 4.80006 6.94068C5.20826 7.19215 5.58764 7.48827 5.93129 7.82367C5.99247 8.52818 5.95991 9.23777 5.83448 9.93359C5.46252 11.8281 5.37833 13.7685 5.58479 15.6884C5.74275 16.5457 6.1606 16.6638 6.80265 17.1515C3.90323 19.7183 4.96312 20.2317 5.49307 20.7707C6.02301 21.3097 6.43576 21.2841 6.13512 21.6742C5.83448 22.0644 5.28415 22.3724 4.09686 23.163C2.90958 23.9536 3.86756 24.2975 4.2803 24.4618C4.69305 24.6261 3.95928 25.0624 3.31213 25.3191C2.66499 25.5758 2.99111 26.0378 3.42933 26.2483C3.86756 26.4588 3.40385 26.9413 2.55288 27.6395C1.70191 28.3377 2.32358 29.1026 2.87391 29.7957C3.42424 30.4887 3.51086 30.8018 3.51086 32.1879C3.51086 33.574 4.27521 33.4867 4.70834 33.728C3.49048 35.3297 2.293 34.5391 2.20128 35.9098C2.10956 37.2805 2.08408 36.7466 1.25349 37.8811C0.422902 39.0157 1.46241 39.7857 2.35925 39.6676C3.25608 39.5496 3.28156 40.181 2.86881 41.0845C2.45606 41.988 2.70575 42.8146 3.51086 43.2561C4.44256 43.7953 5.20932 44.582 5.72747 45.5303C7.38865 48.8928 10.283 47.0396 10.8231 46.1104C11.3327 46.6905 13.3709 46.3208 13.9111 45.8075C14.0283 46.0898 14.7417 46.3208 16.4589 46.48C14.8381 46.4602 13.246 46.9111 11.8728 47.7788C11.5875 47.9482 11.3021 48.133 11.0218 48.3332C10.084 48.1901 9.12516 48.3091 8.24981 48.6772C8.39821 48.7838 8.51787 48.926 8.59795 49.0909C8.67802 49.2559 8.716 49.4383 8.70842 49.6218C7.57303 49.9228 6.59987 50.66 5.99754 51.6752C7.38355 51.1619 8.03579 51.3467 8.03579 51.3467C8.03579 51.3467 8.12751 51.9781 6.47653 52.9638C4.62681 54.0675 4.80516 55.3971 4.80516 55.3971C5.0522 55.2049 5.33444 55.0635 5.63575 54.9813C5.34529 55.4177 4.8714 56.891 5.18223 57.6457C5.53079 57.1867 6.04205 56.8813 6.60901 56.7935C6.73131 57.0245 6.41538 58.4003 5.94148 59.6683C5.46759 60.9363 5.96696 61.6294 6.41538 61.9168C6.4129 61.9287 6.4129 61.9409 6.41538 61.9528C6.72183 61.8302 7.0392 61.7373 7.36317 61.6756H7.47018H7.68419H7.80139C7.86911 61.6677 7.9375 61.6677 8.00522 61.6756H8.09185L8.19376 61.7115L8.28038 61.7474H8.30586L8.39249 61.7885C8.42295 61.8103 8.45536 61.8292 8.48931 61.845L8.56574 61.8963H8.59122L8.68294 61.963L8.78485 62.0452L8.81033 62.0709L8.88677 62.1376L8.91224 62.1684C8.94791 62.1992 8.97849 62.2351 9.01416 62.2711C9.05927 62.3165 9.1018 62.3645 9.14155 62.4148L9.17212 62.4507L9.25875 62.5585L9.28932 62.5996L9.37085 62.7074C9.36988 62.7194 9.36988 62.7314 9.37085 62.7434C9.40143 62.7844 9.42181 62.8255 9.44729 62.8666C9.56009 63.0618 9.63772 63.2755 9.67659 63.498C9.7278 63.8582 9.68748 64.2256 9.55939 64.5658C9.36685 65.0689 9.10249 65.5411 8.77466 65.9673C9.86702 67.3171 11.1024 68.5428 12.4588 69.6224C12.5051 69.2599 12.5187 68.894 12.4996 68.529C12.4333 67.1172 10.8282 64.3502 12.6881 60.9312C12.6015 60.4178 12.576 59.8685 12.4741 59.4681C12.1178 58.2314 11.8504 56.9703 11.6741 55.6949C11.5946 54.9578 11.5946 54.2142 11.6741 53.4771C11.7879 52.5835 12.1203 51.7324 12.6415 51.0003C13.1628 50.2682 13.8564 49.678 14.6601 49.283C15.5519 48.7388 16.4232 49.0057 16.5149 49.2368C16.6894 50.068 16.8086 50.9101 16.8716 51.7574C17.0245 53.1383 17.8908 54.6989 18.6194 56.2442C19.3481 57.7894 20.7239 59.6478 20.7698 59.9609C20.8285 60.5453 20.7607 61.1355 20.5711 61.691C20.0728 62.4107 19.5281 63.0967 18.9405 63.7444C18.65 63.9292 18.8487 64.1448 18.8487 65.0124C18.8257 65.3008 18.8792 65.5901 19.0037 65.8508C19.1281 66.1115 19.3191 66.3342 19.557 66.496C20 66.9623 20.3726 67.4916 20.6628 68.0669C21.0093 68.2774 22.6705 68.0669 23.073 67.5536L23.0272 67.4355C22.7826 66.7133 22.7826 65.9297 23.0272 65.2075C23.1681 64.668 23.2804 64.1214 23.3635 63.5699C23.4858 63.1643 24.5915 62.2403 26.9304 60.4127C29.2693 58.5851 29.4986 55.5101 29.4986 55.5101C29.5744 55.1326 29.6221 54.7499 29.6413 54.3653C29.6617 53.9822 29.6617 53.5984 29.6413 53.2153C29.6016 52.4475 29.4559 51.6889 29.2082 50.9617C28.9641 50.2337 28.5816 49.5606 28.0821 48.9801C27.5761 48.4016 26.9474 47.9454 26.2425 47.6453C26.6432 47.7044 27.0362 47.8077 27.4145 47.9533C27.8163 48.1067 28.1965 48.3121 28.5458 48.5642C29.2853 49.0951 29.911 49.7708 30.3853 50.551C30.8147 51.2429 31.1023 52.0144 31.2312 52.82C32.7599 50.9257 34.6554 48.7131 35.4402 48.7131C36.6784 48.7131 38.6606 47.7993 40.3116 46.8804L26.8132 30.8275L26.3444 31.1253ZM29.0961 42.5476L29.1827 42.1729C29.2133 42.0497 29.2337 41.9264 29.2642 41.7981L29.3254 41.4182C29.3254 41.295 29.356 41.1667 29.3662 41.0383C29.3865 40.7821 29.3865 40.5246 29.3662 40.2683C29.3533 40.011 29.2874 39.7592 29.1725 39.529C29.292 39.6015 29.4002 39.6915 29.4935 39.796C29.5886 39.9016 29.6771 40.013 29.7585 40.1297C29.922 40.3677 30.0636 40.6203 30.1815 40.8843C30.2477 41.0178 30.2987 41.1513 30.3547 41.2847L30.5076 41.6954C30.5483 41.8289 30.5993 41.9675 30.6401 42.1061L30.7573 42.5271C30.8194 42.7476 30.7921 42.9841 30.6812 43.1843C30.5704 43.3846 30.3851 43.5322 30.1662 43.5949C29.9472 43.6575 29.7126 43.63 29.5138 43.5183C29.315 43.4066 29.1684 43.2199 29.1063 42.9994C29.0647 42.8521 29.0612 42.6966 29.0961 42.5476ZM6.8536 26.5717C7.12547 26.3145 7.42649 26.0905 7.75044 25.9044C8.40445 25.5391 9.10595 25.2678 9.83455 25.0984C10.553 24.9033 11.2919 24.775 12.0104 24.585C12.3725 24.4894 12.7167 24.3351 13.0295 24.1281C13.179 24.017 13.3053 23.8775 13.4015 23.7174C13.4861 23.5495 13.5363 23.3662 13.5493 23.1784L13.641 23.3324C13.6551 23.3605 13.667 23.3897 13.6767 23.4197V23.5121C13.6945 23.5741 13.7064 23.6377 13.7123 23.702C13.7123 23.7688 13.7123 23.8355 13.7123 23.9022C13.6768 24.168 13.579 24.4214 13.427 24.6415L13.3658 24.7236L13.2996 24.8006C13.2595 24.8537 13.2152 24.9035 13.1671 24.9495C13.08 25.0402 12.9863 25.1242 12.8868 25.201C12.8418 25.2418 12.7941 25.2796 12.7442 25.314L12.6015 25.4167C12.5047 25.4834 12.4129 25.5399 12.3161 25.5963C11.9631 25.7997 11.5931 25.9714 11.2104 26.1097C10.8537 26.238 10.5123 26.3407 10.1913 26.428C9.87022 26.5153 9.5441 26.5871 9.23327 26.6539L8.30586 26.8387C8.1479 26.8387 7.99503 26.9003 7.83197 26.9362L7.58228 26.9927L7.3275 27.0543C7.23578 27.0543 7.15425 27.1056 7.05743 27.1313L6.91985 27.1672C6.87399 27.1672 6.82303 27.198 6.77717 27.2134C6.57844 27.275 6.38481 27.352 6.15041 27.4188C6.35035 27.1091 6.58644 26.8247 6.8536 26.5717ZM14.5429 30.8018L14.2117 31.3152C14.0996 31.4949 13.9824 31.6694 13.8703 31.8286C13.641 32.1828 13.3913 32.5113 13.1467 32.8553C13.0295 33.0196 12.897 33.1787 12.7696 33.3379L12.3875 33.8153C12.1276 34.1284 11.8779 34.4365 11.6027 34.7393C10.5378 35.9509 9.42181 37.0649 8.35172 38.1789C7.84216 38.7385 7.29693 39.298 6.82303 39.8884C6.58985 40.1826 6.38027 40.495 6.19627 40.8227C6.00282 41.1708 5.87498 41.552 5.81919 41.947C5.77948 41.7494 5.76239 41.5479 5.76823 41.3463C5.77548 41.1442 5.80106 40.9432 5.84467 40.7457C5.93692 40.353 6.0737 39.9724 6.25232 39.6112C6.61436 38.8881 7.04255 38.2007 7.53132 37.5577C8.01031 36.9109 8.51988 36.2897 9.06002 35.6788C9.60015 35.0679 10.1352 34.4929 10.6448 33.882C11.1543 33.2711 11.7047 32.6756 12.2244 32.0647C12.7442 31.4538 13.2435 30.8224 13.7174 30.1704C14.198 29.5308 14.6113 28.8426 14.9506 28.117C15.1168 27.7498 15.2383 27.3636 15.3124 26.967C15.3462 26.7687 15.3599 26.5675 15.3531 26.3664C15.3472 26.1652 15.3181 25.9653 15.2665 25.7709C15.327 25.8585 15.3799 25.9513 15.4245 26.0481C15.4727 26.1494 15.5135 26.254 15.5468 26.3612C15.6117 26.5783 15.6511 26.8023 15.664 27.0286C15.685 27.4814 15.6386 27.9347 15.5264 28.3736C15.3086 29.2239 14.9778 30.0407 14.5429 30.8018ZM21.1673 38.7744C20.0615 39.144 19.45 39.4726 20.0156 40.679C18.6841 41.494 17.663 42.736 17.1162 44.2058C17.1162 44.2058 15.6436 43.8362 15.6436 42.486C15.6436 41.1359 16.7952 38.8206 16.3774 37.568C15.9595 36.3154 18.4971 36.2692 18.9252 35.34C19.3532 34.4108 20.2195 33.9488 20.9634 33.3892C21.7074 32.8296 21.5189 32.3214 21.5189 32.3214C21.6461 32.4092 21.7531 32.5235 21.8326 32.6566C21.9121 32.7897 21.9622 32.9385 21.9796 33.0929C21.997 33.2472 21.9813 33.4035 21.9334 33.5512C21.8856 33.6989 21.8067 33.8345 21.7023 33.9488C20.9176 34.8318 21.8857 36.7312 22.9915 36.5464C23.1342 37.4756 22.2577 38.3842 21.152 38.7539L21.1673 38.7744ZM25.0552 38.5023C24.927 38.9273 24.7686 39.3425 24.5813 39.7446C24.2145 40.5404 23.8068 41.2847 23.4399 42.0497C23.383 42.1666 23.3039 42.2712 23.2069 42.3573C23.1099 42.4434 22.997 42.5095 22.8747 42.5517C22.7524 42.5938 22.623 42.6113 22.494 42.6032C22.365 42.595 22.2388 42.5613 22.1227 42.504C22.0066 42.4467 21.9028 42.3669 21.8173 42.2692C21.7318 42.1715 21.6663 42.0578 21.6244 41.9346C21.5825 41.8113 21.5652 41.681 21.5733 41.551C21.5814 41.421 21.6149 41.2939 21.6717 41.1769C21.7257 41.0619 21.8019 40.959 21.8959 40.8741C22.538 40.2939 23.18 39.7498 23.7813 39.1851C24.0789 38.9076 24.3565 38.6091 24.6119 38.2918C24.878 37.9773 25.0635 37.6019 25.1521 37.1984C25.2255 37.6345 25.1922 38.082 25.0552 38.5023ZM27.3279 38.0557C27.3789 38.4458 27.4145 38.8411 27.4349 39.2416C27.4349 39.6368 27.4655 40.0373 27.4349 40.4428C27.4043 40.8484 27.4043 41.2591 27.3636 41.6698C27.3197 42.0926 27.2516 42.5126 27.1597 42.9275C27.1061 43.1731 26.9579 43.3872 26.7478 43.5229C26.5376 43.6586 26.2826 43.7048 26.0387 43.6513C25.9179 43.6258 25.8033 43.5763 25.7016 43.5058C25.5999 43.4353 25.5131 43.3451 25.4462 43.2405C25.3794 43.1359 25.3338 43.019 25.3122 42.8965C25.2906 42.7741 25.2933 42.6485 25.3202 42.5271C25.344 42.403 25.3944 42.2856 25.468 42.1831C25.6764 41.8869 25.867 41.5783 26.0387 41.2591C26.217 40.9305 26.3852 40.5917 26.5483 40.2323C26.7113 39.873 26.8438 39.5239 26.9712 39.1543C27.0986 38.7847 27.226 38.451 27.3279 38.0711V38.0557Z" fill="#004F98"/>
<path d="M27.389 75.9007C26.795 75.7058 26.189 75.5497 25.575 75.4335C25.1062 75.2846 25.2285 74.6789 24.6374 72.5484C24.1394 73.0559 23.482 73.3734 22.7775 73.4468C22.984 74.1834 23.0886 74.9453 23.0883 75.7107C23.0684 76.1443 23.1747 76.5743 23.394 76.9479C23.5163 77.1687 24.4132 76.9787 24.6883 77.1687C24.9635 77.3586 25.0246 78.7088 25.3304 78.909C25.6361 79.1092 26.1304 78.909 26.9916 78.9603C27.8527 79.0117 29.1063 79.0527 29.1674 78.7755C29.1291 78.1577 28.887 77.5704 28.4795 77.1071C28.0311 76.6707 27.8171 76.1163 27.389 75.9007Z" fill="#004F98"/>
<path d="M17.3965 18.0549C17.4892 18.0276 17.5853 18.0138 17.6819 18.0138C17.9778 18.0138 18.2617 18.1322 18.471 18.3431C18.6802 18.5539 18.7978 18.8399 18.7978 19.138C18.7986 19.2978 18.7638 19.4557 18.6959 19.6001L20.2246 21.4123C20.5487 21.6018 20.8899 21.76 21.2437 21.8845C21.8042 22.083 22.3925 22.1905 22.9864 22.2028C23.2746 22.2099 23.5628 22.191 23.8476 22.1464C23.9883 22.1269 24.1278 22.0995 24.2654 22.0642L24.4642 22.0129L24.6527 21.9513C25.1402 21.7449 25.5797 21.4384 25.9429 21.0512C26.3062 20.664 26.5853 20.2048 26.7623 19.7028C26.9542 19.2119 27.0561 18.6901 27.0629 18.1627C27.0759 17.8505 27.0381 17.5384 26.9508 17.2386C27.2613 16.9471 27.5556 16.6387 27.8324 16.3145C28.1357 15.9694 28.4133 15.6022 28.663 15.2159C28.9189 14.8222 29.1292 14.4002 29.2897 13.9582C29.4513 13.5059 29.5741 13.0404 29.6566 12.567C29.846 11.591 29.8076 10.5839 29.5445 9.62541C29.4025 9.14232 29.2058 8.67726 28.9585 8.23933C28.7156 7.79779 28.4251 7.3846 28.0923 7.00726C27.4288 6.25172 26.6167 5.64335 25.7075 5.22075C23.8878 4.37791 21.8176 4.26592 19.9189 4.9076C18.9837 5.23202 18.1188 5.73389 17.371 6.38609C16.6127 7.03598 15.9908 7.83184 15.5417 8.72703C14.718 10.4247 14.5368 12.3667 15.0321 14.1892C14.7366 14.1892 14.4563 14.22 14.1964 14.2457L17.3965 18.0549ZM16.3417 11.7097C16.436 10.1055 17.158 8.60453 18.3494 7.53602C18.9415 7.00121 19.6348 6.59259 20.3877 6.33475C21.1381 6.07158 21.9342 5.96674 22.7266 6.02673C23.1199 6.05981 23.5091 6.13203 23.8884 6.24234C24.2639 6.35468 24.6275 6.50429 24.9737 6.68897C25.6646 7.05945 26.2827 7.55348 26.798 8.14692C27.0444 8.44277 27.2659 8.75872 27.4604 9.09151C27.6586 9.42941 27.8291 9.78311 27.97 10.149C28.289 10.8964 28.4886 11.69 28.5611 12.5003C28.5872 12.9207 28.565 13.3427 28.4948 13.758C28.4297 14.1821 28.3274 14.5996 28.1891 15.0055C28.052 15.4229 27.86 15.82 27.6184 16.1862C27.3962 16.5153 27.1343 16.8154 26.8387 17.0795C26.8126 17.0131 26.7802 16.9495 26.7419 16.8895C26.5554 16.5934 26.3403 16.3166 26.0999 16.063C25.5597 15.6164 25.6362 16.7304 25.0807 16.6688C24.5253 16.6072 24.1584 16.7458 24.1126 17.1462C24.0667 17.5466 23.4807 17.7674 22.8387 17.6596C22.1966 17.5518 21.9163 17.9984 21.7176 17.5056C21.5189 17.0127 20.6221 16.7663 20.6322 16.6944C20.6424 16.6226 20.5303 15.9655 20.6832 15.9655C20.8361 15.9655 21.1928 15.6985 21.3609 15.7447C21.5291 15.7909 21.845 16.602 22.2374 16.8946C22.6297 17.1873 22.9711 16.7509 23.124 16.5199C23.2769 16.2889 23.5724 16.2632 23.6336 16.0476C23.6836 15.8826 23.7708 15.7315 23.8884 15.6061C23.8884 15.6061 24.1992 15.8885 24.4285 15.8115C24.5304 15.7806 24.5763 15.4778 24.6018 15.3494C24.6757 15.0354 24.7798 14.7294 24.9126 14.4356C25.0553 14.1122 25.0858 14.3432 25.3304 14.066C25.5935 13.7535 25.7694 13.3761 25.84 12.9725C26.0693 13.0188 26.1865 12.8801 26.4413 12.4849C26.6961 12.0896 26.2986 11.6994 26.0489 10.8164C25.7992 9.93343 25.4222 10.5135 25.0706 9.75375C24.719 8.99397 24.0514 9.35846 23.1801 8.98884C22.3087 8.61922 22.3036 9.35846 21.524 9.14798C20.7443 8.9375 20.7851 9.66135 19.8628 9.89236C18.9405 10.1234 18.9405 11.3503 18.9405 11.8072C18.9405 12.2641 18.757 12.875 18.1609 12.875C17.5647 12.875 17.3761 13.5937 17.1417 14.1738H16.7086C16.7086 14.1379 16.7086 14.1019 16.6678 14.0609C16.4041 13.307 16.2932 12.5075 16.3417 11.7097Z" fill="#004F98"/>
<path d="M37.6059 49.7962C37.0517 50.0059 36.4694 50.1305 35.8784 50.1659C35.4198 50.1659 34.6096 50.9205 33.7281 51.9267C35.0958 51.8388 36.4689 51.9512 37.8046 52.2604C37.861 51.4336 37.794 50.603 37.6059 49.7962Z" fill="#004F98"/>
<path d="M36.6325 60.6845C36.0075 60.4111 35.3438 60.2379 34.6656 60.1712C34.5594 61.0389 34.7774 61.9154 35.2771 62.6302C35.6608 63.1805 36.1728 63.6275 36.7681 63.9318C37.3634 64.2361 38.0238 64.3885 38.6912 64.3756H38.8339C39.2262 64.3756 39.3027 64.3038 39.3434 64.2884C39.3842 64.273 39.4352 64.0265 39.3129 63.5337C38.8797 61.8909 37.6772 61.2492 36.6325 60.6845Z" fill="#004F98"/>
<path d="M47.2366 53.6722L41.5957 46.9677L40.8721 47.3989L46.6047 54.2112L46.1716 54.5809L49.3156 56.778L47.6799 53.2923L47.2366 53.6722Z" fill="#004F98"/>
</svg>
